<svg xmlns="http://www.w3.org/2000/svg" width="24" height="24" viewBox="0 0 24 24"><g transform="translate(-2371.436 -130.5)"><rect width="24" height="24" transform="translate(2371.436 130.5)" fill="none"/><g transform="translate(60 70)"><path d="M3.419-2a7.35,7.35,0,0,1,7.35,7.35V8.778l.077.054a4.586,4.586,0,0,1,1.977,2.317,2.881,2.881,0,0,1-.505,2.564,3.266,3.266,0,0,1-2.6,1.349h-12.6A3.132,3.132,0,0,1-5.3,13.868a3.2,3.2,0,0,1-.706-2.626A4.143,4.143,0,0,1-4.015,8.829l.084-.058V5.35A7.35,7.35,0,0,1,3.419-2Zm6.3,14.962a1.177,1.177,0,0,0,.91-.5.842.842,0,0,0,.186-.7c-.152-.494-.72-.893-1.176-1.214a4.99,4.99,0,0,1-.663-.521,1.05,1.05,0,0,1-.308-.742V5.35a5.25,5.25,0,1,0-10.5,0V9.287a1.05,1.05,0,0,1-.308.742,4.793,4.793,0,0,1-.691.532c-.439.3-1.041.712-1.124,1.108a1.145,1.145,0,0,0,.28.873,1.052,1.052,0,0,0,.792.419Z" transform="translate(2320 64)" fill="#707070"/><path d="M2.116,2.1a2.1,2.1,0,0,0,4.167,0H2.116M0,0H8.4V1.837a4.2,4.2,0,1,1-8.4,0Z" transform="translate(2319.219 76.963)" fill="#707070"/></g></g></svg>