<svg xmlns="http://www.w3.org/2000/svg" width="40" height="40" viewBox="0 0 40 40"><g transform="translate(-72 -446)"><rect width="40" height="40" transform="translate(72 446)" fill="none"/><path d="M20,2H0A2,2,0,0,1-2,0,2,2,0,0,1,0-2H20a2,2,0,0,1,2,2A2,2,0,0,1,20,2Z" transform="translate(82 450)" /><path d="M6,4A2,2,0,0,0,4,6V22a2,2,0,0,0,2,2H34a2,2,0,0,0,2-2V6a2,2,0,0,0-2-2H6M6,0H34a6,6,0,0,1,6,6V22a6,6,0,0,1-6,6H6a6,6,0,0,1-6-6V6A6,6,0,0,1,6,0Z" transform="translate(72 456)" /><path d="M5.272,2.962a2,2,0,0,1,3.455,0l3.518,6.031A2,2,0,0,1,10.518,12H3.482A2,2,0,0,1,1.755,8.992Z" transform="translate(99 463) rotate(90)" /></g></svg>