<svg xmlns="http://www.w3.org/2000/svg" width="24" height="24" viewBox="0 0 24 24"><g transform="translate(-2316 -129)"><rect width="24" height="24" transform="translate(2316 129)" fill="none"/><path d="M10.889,21a3.98,3.98,0,0,1-3.951-4H2.988a.988.988,0,0,1-.912-.617,1.009,1.009,0,0,1,.214-1.09l1.388-1.405a1.045,1.045,0,0,0,.3-.729V10A7.023,7.023,0,0,1,7.944,3.665a2.959,2.959,0,0,1,5.889,0,6.9,6.9,0,0,1,2.7,2.293A7.027,7.027,0,0,1,17.8,10v3.158a1.032,1.032,0,0,0,.3.73l1.388,1.4a1.009,1.009,0,0,1,.214,1.09A.988.988,0,0,1,18.79,17H14.839A3.98,3.98,0,0,1,10.889,21ZM8.922,17.182a1.97,1.97,0,0,0,3.77.636ZM7.93,15h8.512a3.034,3.034,0,0,1-.615-1.842V10a5.007,5.007,0,0,0-3.293-4.716,1,1,0,0,1-.658-.945V4A.988.988,0,1,0,9.9,4v.341a1,1,0,0,1-.658.943A5.007,5.007,0,0,0,5.951,10v3.159A3.08,3.08,0,0,1,5.334,15h2.6Z" transform="translate(2317 130)"/></g></svg>