<svg xmlns="http://www.w3.org/2000/svg" width="40" height="40" viewBox="0 0 40 40"><g transform="translate(-72 -254)"><rect width="40" height="40" transform="translate(72 254)" fill="none"/><path d="M4,4H4v8s0,0,0,0h8V4s0,0,0,0H4M4,0h8a4,4,0,0,1,4,4v8a4,4,0,0,1-4,4H4a4,4,0,0,1-4-4V4A4,4,0,0,1,4,0Z" transform="translate(74 256)" /><path d="M4,4H4v8s0,0,0,0h8V4s0,0,0,0H4M4,0h8a4,4,0,0,1,4,4v8a4,4,0,0,1-4,4H4a4,4,0,0,1-4-4V4A4,4,0,0,1,4,0Z" transform="translate(94 256)" /><path d="M4,4H4v8s0,0,0,0h8V4s0,0,0,0H4M4,0h8a4,4,0,0,1,4,4v8a4,4,0,0,1-4,4H4a4,4,0,0,1-4-4V4A4,4,0,0,1,4,0Z" transform="translate(94 276)" /><path d="M4,4H4v8s0,0,0,0h8V4s0,0,0,0H4M4,0h8a4,4,0,0,1,4,4v8a4,4,0,0,1-4,4H4a4,4,0,0,1-4-4V4A4,4,0,0,1,4,0Z" transform="translate(74 276)" /></g></svg>