<svg xmlns="http://www.w3.org/2000/svg" width="40" height="40" viewBox="0 0 40 40"><g transform="translate(-72 -830)"><rect width="40" height="40" transform="translate(72 830)" fill="none"/><path d="M36,2H0A2,2,0,0,1-2,0,2,2,0,0,1,0-2H36a2,2,0,0,1,2,2A2,2,0,0,1,36,2Z" transform="translate(74 846)" /><path d="M8,2H0A2,2,0,0,1-2,0,2,2,0,0,1,0-2H8a2,2,0,0,1,2,2A2,2,0,0,1,8,2Z" transform="translate(82 856)" /><path d="M6,4A2,2,0,0,0,4,6V26a2,2,0,0,0,2,2H34a2,2,0,0,0,2-2V6a2,2,0,0,0-2-2H6M6,0H34a6,6,0,0,1,6,6V26a6,6,0,0,1-6,6H6a6,6,0,0,1-6-6V6A6,6,0,0,1,6,0Z" transform="translate(72 834)" /></g></svg>