<svg xmlns="http://www.w3.org/2000/svg" width="40" height="40" viewBox="0 0 40 40"><g transform="translate(-72 -542)"><rect width="40" height="40" transform="translate(72 542)" fill="none"/><path d="M18,2H0A2,2,0,0,1-2,0,2,2,0,0,1,0-2H18a2,2,0,0,1,2,2A2,2,0,0,1,18,2Z" transform="translate(88 552)" /><path d="M18,2H0A2,2,0,0,1-2,0,2,2,0,0,1,0-2H18a2,2,0,0,1,2,2A2,2,0,0,1,18,2Z" transform="translate(88 572)" /><path d="M2,2H0A2,2,0,0,1-2,0,2,2,0,0,1,0-2H2A2,2,0,0,1,4,0,2,2,0,0,1,2,2Z" transform="translate(78 572)" /><path d="M2,2H0A2,2,0,0,1-2,0,2,2,0,0,1,0-2H2A2,2,0,0,1,4,0,2,2,0,0,1,2,2Z" transform="translate(78 562)" /><path d="M2,2H0A2,2,0,0,1-2,0,2,2,0,0,1,0-2H2A2,2,0,0,1,4,0,2,2,0,0,1,2,2Z" transform="translate(78 552)" /><path d="M18,2H0A2,2,0,0,1-2,0,2,2,0,0,1,0-2H18a2,2,0,0,1,2,2A2,2,0,0,1,18,2Z" transform="translate(88 562)" /></g></svg>