<svg xmlns="http://www.w3.org/2000/svg" width="40" height="40" viewBox="0 0 40 40"><g transform="translate(-72 -636.75)"><rect width="40" height="40" transform="translate(72 636.75)" fill="none"/><path d="M6,4A2,2,0,0,0,4,6V28a2,2,0,0,0,2,2H34a2,2,0,0,0,2-2V6a2,2,0,0,0-2-2H6M6,0H34a6,6,0,0,1,6,6V28a6,6,0,0,1-6,6H6a6,6,0,0,1-6-6V6A6,6,0,0,1,6,0Z" transform="translate(72 642)" /><path d="M0,11A2,2,0,0,1-2,9V0A2,2,0,0,1,0-2,2,2,0,0,1,2,0V9A2,2,0,0,1,0,11Z" transform="translate(102 639.5)" /><path d="M0,11A2,2,0,0,1-2,9V0A2,2,0,0,1,0-2,2,2,0,0,1,2,0V9A2,2,0,0,1,0,11Z" transform="translate(82 639.5)" /><path d="M89.839,666.146a2,2,0,0,1-1.406-.577l-4.256-4.2a2,2,0,0,1,2.811-2.846l2.985,2.947L98.6,654.5a2,2,0,1,1,2.512,3.113L91.095,665.7A2,2,0,0,1,89.839,666.146Z" /></g></svg>