<svg xmlns="http://www.w3.org/2000/svg" width="40" height="40" viewBox="0 0 40 40"><g transform="translate(315 -351)"><rect width="40" height="40" transform="translate(-315 351)" fill="none"/><g transform="translate(-387 1)"><path d="M6,4A2,2,0,0,0,4,6V22a2,2,0,0,0,2,2H34a2,2,0,0,0,2-2V6a2,2,0,0,0-2-2H6M6,0H34a6,6,0,0,1,6,6V22a6,6,0,0,1-6,6H6a6,6,0,0,1-6-6V6A6,6,0,0,1,6,0Z" transform="translate(72 352)" /><path d="M16,2H0A2,2,0,0,1-2,0,2,2,0,0,1,0-2H16a2,2,0,0,1,2,2A2,2,0,0,1,16,2Z" transform="translate(82.5 361.5)" /><path d="M8,2H0A2,2,0,0,1-2,0,2,2,0,0,1,0-2H8a2,2,0,0,1,2,2A2,2,0,0,1,8,2Z" transform="translate(82.5 370.5)" /><path d="M16,2H0A2,2,0,0,1-2,0,2,2,0,0,1,0-2H16a2,2,0,0,1,2,2A2,2,0,0,1,16,2Z" transform="translate(84 386)" /><path d="M0,9A2,2,0,0,1-2,7V0A2,2,0,0,1,0-2,2,2,0,0,1,2,0V7A2,2,0,0,1,0,9Z" transform="translate(88 378.5)" /><path d="M0,9A2,2,0,0,1-2,7V0A2,2,0,0,1,0-2,2,2,0,0,1,2,0V7A2,2,0,0,1,0,9Z" transform="translate(96 378.5)" /></g></g></svg>