<svg xmlns="http://www.w3.org/2000/svg" width="24" height="24" viewBox="0 0 24 24"><g transform="translate(-601 -117)"><rect width="24" height="24" transform="translate(601 117)" fill="none"/><g transform="translate(604.141 120.141)"><path d="M7.875,2.25A5.625,5.625,0,1,0,13.5,7.875,5.631,5.631,0,0,0,7.875,2.25m0-2.25A7.875,7.875,0,1,1,0,7.875,7.875,7.875,0,0,1,7.875,0Z" /><path d="M3.063,4.187a1.121,1.121,0,0,1-.8-.33L-1.67-.08a1.125,1.125,0,0,1,0-1.591,1.125,1.125,0,0,1,1.591,0L3.858,2.267a1.125,1.125,0,0,1-.8,1.92Z" transform="translate(13.531 13.531)" /></g></g></svg>