<svg xmlns="http://www.w3.org/2000/svg" width="64" height="40" viewBox="0 0 64 40"><g transform="translate(-65 -148.845)"><rect width="64" height="40" transform="translate(65 148.845)" fill="none"/><g transform="translate(0 77.691)"><path d="M7.918,5.278A2.642,2.642,0,0,0,5.278,7.918V26.392a2.642,2.642,0,0,0,2.639,2.639H56.082a2.642,2.642,0,0,0,2.639-2.639V7.918a2.642,2.642,0,0,0-2.639-2.639H7.918M7.918,0H56.082A7.918,7.918,0,0,1,64,7.918V26.392a7.918,7.918,0,0,1-7.918,7.918H7.918A7.918,7.918,0,0,1,0,26.392V7.918A7.918,7.918,0,0,1,7.918,0Z" transform="translate(65 74)" fill="#ff6f02"/><path d="M5.278,5.278v5.278h32.99V5.278H5.278M5.278,0h32.99a5.278,5.278,0,0,1,5.278,5.278v5.278a5.278,5.278,0,0,1-5.278,5.278H5.278A5.278,5.278,0,0,1,0,10.557V5.278A5.278,5.278,0,0,1,5.278,0Z" transform="translate(75.557 83.237)" fill="#ff6f02"/></g></g></svg>